Coordinates
version=1
nRows=6
nColumns=63
inDegrees=yes

Units are S.I. units (second, meters, Newtons, ...)
If the header above contains a line with 'inDegrees', this indicates whether rotational values are in degrees (yes) or radians (no).

endheader
time	pelvis_tilt	pelvis_list	pelvis_rotation	pelvis_tx	pelvis_ty	pelvis_tz	hip_flexion_r	hip_adduction_r	hip_rotation_r	knee_angle_r	knee_angle_r_beta	ankle_angle_r	subtalar_angle_r	mtp_angle_r	hip_flexion_l	hip_adduction_l	hip_rotation_l	knee_angle_l	knee_angle_l_beta	ankle_angle_l	subtalar_angle_l	mtp_angle_l	L5_S1_Flex_Ext	L5_S1_Lat_Bending	L5_S1_axial_rotation	L4_L5_Flex_Ext	L4_L5_Lat_Bending	L4_L5_axial_rotation	L3_L4_Flex_Ext	L3_L4_Lat_Bending	L3_L4_axial_rotation	L2_L3_Flex_Ext	L2_L3_Lat_Bending	L2_L3_axial_rotation	L1_L2_Flex_Ext	L1_L2_Lat_Bending	L1_L2_axial_rotation	L1_T12_Flex_Ext	L1_T12_Lat_Bending	L1_T12_axial_rotation	Abs_r3	Abs_r2	Abs_r1	Abs_t1	Abs_t2	neck_flexion	neck_bending	neck_rotation	arm_flex_r	arm_add_r	arm_rot_r	elbow_flex_r	pro_sup_r	wrist_flex_r	wrist_dev_r	arm_flex_l	arm_add_l	arm_rot_l	elbow_flex_l	pro_sup_l	wrist_flex_l	wrist_dev_l
3.510204	-3.767189	-6.376862	87.982543	0.219441	0.897103	0.515199	3.736060	-2.136349	7.350772	16.839225	0.293900	26.508664	-12.490362	0.000000	-0.095119	2.368958	-10.999929	8.625558	0.150544	25.843597	5.539854	0.000000	-0.212120	-0.162840	0.358518	-0.393927	-0.216578	0.380926	-0.348491	-0.395930	0.380926	-0.242431	-0.395930	0.313704	-0.196974	-0.332064	0.291296	-0.121205	-0.252240	0.268889	-1.515149	-1.842082	1.993971	0.000000	0.000000	20.746993	4.292171	-10.098278	10.887255	-20.495128	64.599105	142.337975	56.850015	5.275992	24.171042	18.731816	-0.322863	180.320324	0.619196	11.306182	-9.543825	-5.909898
3.530612	-3.974359	-6.233945	88.409388	0.219782	0.897154	0.512784	3.177624	-2.318312	7.054826	16.502393	0.288021	26.578313	-12.589731	0.000000	-0.298971	2.471254	-11.312804	8.880953	0.155002	25.825703	6.271695	0.000000	-0.206276	-0.212211	0.211064	-0.383075	-0.282240	0.224256	-0.338891	-0.515969	0.224256	-0.235753	-0.515969	0.184681	-0.191548	-0.432740	0.171490	-0.117866	-0.328714	0.158298	-1.473409	-2.400569	1.173875	0.000000	0.000000	20.961406	4.605702	-10.483128	11.093605	-20.292468	66.109162	141.969529	56.143913	5.102482	24.483687	17.980992	-0.702045	183.183358	0.638316	12.492082	-7.446602	-4.350271
3.551020	-4.137987	-6.112101	88.923829	0.219846	0.897164	0.510739	2.663893	-2.472346	6.642538	16.196418	0.282681	26.641438	-12.664811	0.000000	-0.461676	2.549090	-11.318758	9.101900	0.158858	25.778829	6.779288	0.000000	-0.199174	-0.252882	0.074348	-0.369886	-0.336333	0.078994	-0.327223	-0.614857	0.078994	-0.227636	-0.614857	0.065054	-0.184953	-0.515677	0.060407	-0.113808	-0.391714	0.055761	-1.422681	-2.860650	0.413499	0.000000	0.000000	21.343083	4.742076	-10.845377	11.076833	-20.208449	67.165359	141.659578	55.357843	4.894353	24.676134	17.352037	-1.029778	185.861691	0.639703	13.338962	-5.767905	-3.124184
3.571429	-4.266998	-5.999938	89.507658	0.219683	0.897159	0.509013	2.176613	-2.599370	6.158274	15.905201	0.277598	26.697794	-12.736492	0.000000	-0.603919	2.606241	-11.132091	9.273164	0.161847	25.727589	7.177285	0.000000	-0.191931	-0.286697	-0.048833	-0.356435	-0.381306	-0.051885	-0.315323	-0.697074	-0.051885	-0.219358	-0.697074	-0.042729	-0.178227	-0.584632	-0.039677	-0.109669	-0.444093	-0.036625	-1.370944	-3.243168	-0.271594	0.000000	0.000000	21.885512	4.740613	-11.181651	10.808170	-20.202412	67.713061	141.397451	54.530301	4.717994	24.727377	16.824582	-1.328104	188.030637	0.624184	13.804555	-4.482380	-2.306617
3.591837	-4.367489	-5.896772	90.159698	0.219344	0.897163	0.507561	1.705893	-2.703319	5.597892	15.607514	0.272403	26.759264	-12.764148	0.000000	-0.727006	2.650277	-10.665097	9.396793	0.164005	25.641910	7.318479	0.000000	-0.184279	-0.315713	-0.160980	-0.342224	-0.419898	-0.171041	-0.302752	-0.767625	-0.171041	-0.210612	-0.767625	-0.140857	-0.171121	-0.643802	-0.130796	-0.105297	-0.489040	-0.120735	-1.316286	-3.571409	-0.895320	0.000000	0.000000	22.557838	4.634372	-11.506026	10.322846	-20.244769	67.767966	141.187510	54.069418	4.686750	24.500905	16.377985	-1.625965	189.439805	0.604906	13.868259	-3.621689	-1.945699
3.612245	-4.432213	-5.808765	90.850823	0.218881	0.897209	0.506329	1.260248	-2.760747	5.056075	15.304758	0.267118	26.787865	-12.836231	0.000000	-0.833264	2.667499	-10.024803	9.468903	0.165264	25.532155	7.289128	0.000000	-0.175069	-0.339142	-0.258045	-0.325120	-0.451059	-0.274172	-0.287620	-0.824589	-0.274172	-0.200086	-0.824589	-0.225789	-0.162569	-0.691578	-0.209661	-0.100034	-0.525331	-0.193534	-1.250497	-3.836439	-1.435167	0.000000	0.000000	23.323850	4.440302	-11.791471	9.682514	-20.306381	67.400162	141.109366	53.974978	4.776986	24.224983	16.014920	-1.937168	189.933365	0.608881	13.517524	-3.060364	-2.106207
